<svg xmlns="http://www.w3.org/2000/svg" width="31" height="31"><path d="M0 0 C1.65 0 3.3 0 5 0 C5.33 0.66 5.66 1.32 6 2 C6.969375 1.979375 7.93875 1.95875 8.9375 1.9375 C12 2 12 2 13 3 C13.04063832 4.66617115 13.042721 6.33388095 13 8 C14.65 8.66 16.3 9.32 18 10 C17.814375 11.0725 17.62875 12.145 17.4375 13.25 C17.0695432 16.40391546 16.95534657 18.09818492 18 21 C16.35 21.66 14.7 22.32 13 23 C13 24.65 13 26.3 13 28 C8.25 29 8.25 29 6 29 C5.67 29.66 5.34 30.32 5 31 C3.35 31 1.7 31 0 31 C-0.33 30.34 -0.66 29.68 -1 29 C-1.969375 29.020625 -2.93875 29.04125 -3.9375 29.0625 C-7 29 -7 29 -8 28 C-8.04063832 26.33382885 -8.042721 24.66611905 -8 23 C-10.475 22.01 -10.475 22.01 -13 21 C-12.814375 19.9275 -12.62875 18.855 -12.4375 17.75 C-12.0695432 14.59608454 -11.95534657 12.90181508 -13 10 C-11.35 9.34 -9.7 8.68 -8 8 C-8 6.35 -8 4.7 -8 3 C-3.25 2 -3.25 2 -1 2 C-0.67 1.34 -0.34 0.68 0 0 Z " fill="#45B29D" transform="translate(13,0)"></path><path d="M0 0 C0.99 0 1.98 0 3 0 C1.55746343 3.36591866 -0.33264727 5.51047079 -3 8 C-4.32 7.34 -5.64 6.68 -7 6 C-7 5.01 -7 4.02 -7 3 C-5.68 3.66 -4.36 4.32 -3 5 C-2.690625 4.360625 -2.38125 3.72125 -2.0625 3.0625 C-1 1 -1 1 0 0 Z " fill="#DEF1EE" transform="translate(18,12)"></path></svg>