<svg xmlns="http://www.w3.org/2000/svg" width="31" height="31" viewBox="0 0 31 31" fill="none"><g clip-path="url(#clip0_2818_662)"><path d="M13.0928 1.68939C14.004 -0.422506 16.9962 -0.422506 17.9074 1.68939C18.5338 3.14133 20.2917 3.71295 21.6513 2.90683C23.6288 1.73431 26.0494 3.4945 25.5462 5.73909C25.2004 7.28226 26.2868 8.77878 27.86 8.92638C30.1486 9.14111 31.0731 11.9891 29.3477 13.509C28.1618 14.554 28.1618 16.4039 29.3477 17.4489C31.0731 18.9688 30.1486 21.8169 27.86 22.0315C26.2868 22.1791 25.2004 23.6757 25.5462 25.2188C26.0494 27.4634 23.6288 29.2235 21.6513 28.0511C20.2917 27.2451 18.5338 27.8165 17.9074 29.2686C16.9962 31.3804 14.004 31.3804 13.0928 29.2686C12.4664 27.8165 10.7086 27.2451 9.34903 28.0511C7.37151 29.2235 4.95084 27.4634 5.45397 25.2188C5.79986 23.6757 4.71349 22.1791 3.14017 22.0315C0.851717 21.8169 -0.0728923 18.9688 1.6524 17.4489C2.83852 16.4039 2.83852 14.554 1.6524 13.509C-0.0728923 11.9891 0.851717 9.14111 3.14017 8.92638C4.71349 8.77878 5.79986 7.28226 5.45397 5.73909C4.95084 3.4945 7.37151 1.73431 9.34903 2.90683C10.7086 3.71295 12.4664 3.14133 13.0928 1.68939Z" fill="#45B29D"></path><path d="M19.7341 11.7467C19.4453 11.7551 19.1712 11.8746 18.9698 12.0798C17.2108 13.8287 15.6047 15.5436 13.9154 17.2548L11.9296 15.6753C11.8155 15.5848 11.6846 15.5175 11.5443 15.4771C11.404 15.4369 11.2571 15.4243 11.112 15.4403C10.9668 15.4562 10.8262 15.5005 10.6983 15.5703C10.5703 15.6403 10.4575 15.7344 10.3663 15.8476C10.275 15.9608 10.2071 16.0906 10.1665 16.2298C10.1259 16.3689 10.1132 16.5148 10.1294 16.6588C10.1455 16.8029 10.1901 16.9423 10.2605 17.0691C10.331 17.196 10.426 17.3079 10.5401 17.3984L13.3191 19.6039C13.5334 19.7733 13.8033 19.8584 14.0768 19.8423C14.3504 19.8264 14.6084 19.7109 14.8012 19.5178C16.8002 17.5304 18.5912 15.5783 20.5447 13.6365C20.7042 13.4812 20.8128 13.2817 20.8563 13.0642C20.8999 12.8468 20.8764 12.6213 20.7888 12.4173C20.7015 12.2133 20.554 12.0402 20.3657 11.9206C20.1775 11.801 19.9573 11.7404 19.7341 11.7467Z" fill="white"></path></g><defs><clipPath id="clip0_2818_662"><rect width="31" height="31" fill="white"></rect></clipPath></defs></svg>