<svg xmlns="http://www.w3.org/2000/svg" width="57" height="57" viewBox="0 0 57 57" fill="none"><g clip-path="url(#clip0_2818_1713)"><path d="M40.7261 42.1865C45.84 42.1865 50.0011 38.0226 50.0011 32.9053C50.0011 27.7879 45.84 23.624 40.7261 23.624C35.6123 23.624 31.4512 27.7879 31.4512 32.9053C31.4512 38.0226 35.6123 42.1865 40.7261 42.1865ZM35.9506 32.9179C36.467 32.1427 37.5136 31.9339 38.2893 32.4507L39.415 33.2016C42.1047 29.1653 41.9603 29.2771 42.4125 29.0188C43.9481 28.1296 45.645 29.9321 44.6585 31.4161C41.9624 35.4639 42.7266 34.3164 41.2858 36.4786C40.7683 37.2559 39.7206 37.4615 38.947 36.9458L36.4175 35.2583C35.6428 34.7415 35.4341 33.6942 35.9506 32.9179Z" fill="#FAE083"></path><path d="M33.1367 43.0225V52.31C33.1367 53.6031 34.5364 54.4173 35.6599 53.775L40.7253 50.8788L45.7907 53.775C46.91 54.4173 48.3139 53.6062 48.3139 52.31V43.0225C43.8208 46.4048 37.6361 46.4101 33.1378 43.0225H33.1367Z" fill="#046B6B"></path><path d="M44.0988 20.7067V3.66504C44.0988 1.64426 42.4557 0 40.4362 0H10.6626C8.64314 0 7 1.64426 7 3.66504V42.7402C7 44.7609 8.64314 46.4052 10.6626 46.4052H29.7648C29.7648 39.1437 29.7532 39.593 29.7911 39.2586C24.146 29.5745 33.1354 17.6607 44.0978 20.7077L44.0988 20.7067ZM17.1181 8.4375H31.4511C32.3828 8.4375 33.1375 9.19266 33.1375 10.125C33.1375 11.0573 32.3828 11.8125 31.4511 11.8125H17.1181C16.1864 11.8125 15.4318 11.0573 15.4318 10.125C15.4318 9.19266 16.1864 8.4375 17.1181 8.4375ZM17.1181 15.1864H31.4511C32.3828 15.1864 33.1375 15.9416 33.1375 16.8739C33.1375 17.8063 32.3828 18.5614 31.4511 18.5614H17.1181C16.1864 18.5614 15.4318 17.8063 15.4318 16.8739C15.4318 15.9416 16.1864 15.1864 17.1181 15.1864ZM25.5489 25.3114H17.1171C16.1854 25.3114 15.4307 24.5563 15.4307 23.6239C15.4307 22.6916 16.1854 21.9364 17.1171 21.9364H25.5489C26.4806 21.9364 27.2352 22.6916 27.2352 23.6239C27.2352 24.5563 26.4806 25.3114 25.5489 25.3114Z" fill="#53B5A2"></path></g><defs><clipPath id="clip0_2818_1713"><rect width="43" height="54" fill="white" transform="translate(7)"></rect></clipPath></defs></svg>