<svg xmlns="http://www.w3.org/2000/svg" width="36" height="25" viewBox="0 0 36 25" fill="none"><rect x="8" y="6.321" width="19.2" height="12.642" fill="#FFE27A"></rect><path d="M35.2477 3.91165C34.8337 2.37194 33.6138 1.15931 32.065 0.747786C29.2575 0 18 0 18 0C18 0 6.74254 0 3.93503 0.747786C2.38616 1.15937 1.16629 2.37194 0.752255 3.91165C0 6.70247 0 12.5253 0 12.5253C0 12.5253 0 18.348 0.752255 21.1389C1.16629 22.6786 2.38616 23.8407 3.93503 24.2522C6.74254 25 18 25 18 25C18 25 29.2575 25 32.065 24.2522C33.6138 23.8407 34.8337 22.6786 35.2477 21.1389C36 18.348 36 12.5253 36 12.5253C36 12.5253 36 6.70247 35.2477 3.91165ZM14.3182 17.8119V7.23861L23.7272 12.5254L14.3182 17.8119Z" fill="#45B29D"></path></svg>