<svg xmlns="http://www.w3.org/2000/svg" width="57" height="57" viewBox="0 0 57 57" fill="none"><path d="M30.1758 48.6172H56.9993V56.9995H30.1758V48.6172Z" fill="#046B6B"></path><path d="M33.5609 32.2512C32.8892 33.864 32.7373 35.6466 33.1284 37.3487L34.8633 45.3018H52.4261L52.3329 44.8661C50.7841 39.4761 51.1109 33.7191 53.2707 28.5339C55.6915 22.7232 55.8959 16.2252 53.8451 10.2727L51.0485 2.48937C50.3792 0.548683 48.2152 -0.440881 46.2996 0.344601C44.5695 1.05766 43.6798 2.98113 44.2576 4.76154L44.2577 4.7611L47.1791 13.3142C48.1373 16.2665 47.9791 19.4405 46.8184 22.2254C45.0626 26.4399 45.9471 24.3243 42.823 31.7783C42.8098 31.7727 39.7458 30.4863 39.7326 30.4807C40.1419 29.5042 43.4865 21.5241 43.8957 20.5475C43.4921 20.2802 43.1756 20.1694 43.0844 20.1268C40.98 19.2506 38.5624 20.2453 37.6851 22.351L33.5609 32.2512Z" fill="#45B29D"></path><path d="M0 48.6172H26.8235V56.9995H0V48.6172Z" fill="#046B6B"></path><path d="M4.66854 44.866L4.57544 45.3018H22.1381L23.8731 37.3486C24.2642 35.6466 24.1124 33.8638 23.4405 32.2512L19.3165 22.351C18.4391 20.2454 16.0217 19.2507 13.9171 20.1269C13.8241 20.1703 13.5098 20.2802 13.1059 20.5476C13.5723 21.6604 16.8041 29.3714 17.269 30.4808C17.2558 30.4864 14.1918 31.7728 14.1786 31.7784C9.86649 21.4896 10.0784 22.0032 9.86839 21.3798C8.99138 18.7729 8.96846 15.9454 9.82257 13.3142L12.744 4.76107V4.76151C13.3218 2.9811 12.4323 1.05763 10.7022 0.344573C8.78752 -0.440462 6.62286 0.547426 5.95316 2.48923L3.15636 10.2725C1.10537 16.2251 1.3099 22.7231 3.73083 28.5338C5.887 33.7105 6.22006 39.4666 4.66854 44.866Z" fill="#45B29D"></path><path d="M36.8305 2.07101C35.1952 -0.175126 32.0512 -0.671139 29.805 0.962303L28.4996 1.91119L27.1941 0.962303C24.9471 -0.671586 21.8034 -0.174344 20.1686 2.07101C18.8565 3.87601 18.9409 6.24553 20.1597 7.97666C21.0485 9.23926 28.4996 17.5471 28.4996 17.5471C28.4996 17.5471 36.3231 8.82942 36.8394 7.97666C37.9361 6.16562 38.1426 3.87601 36.8305 2.07101Z" fill="#FFE27A"></path></svg>