<svg xmlns="http://www.w3.org/2000/svg" width="30" height="35" viewBox="0 0 30 35" fill="none"><path d="M0.896615 5.27236L1.31933 5.37143V9.22869C0.856985 9.50609 0.52674 9.98825 0.52674 10.5695C0.52674 11.1243 0.830566 11.5866 1.25988 11.8706L0.22952 15.9855C0.117237 16.4412 0.368223 16.9102 0.731492 16.9102H3.49234C3.85561 16.9102 4.10659 16.4412 3.99431 15.9855L2.96395 11.8706C3.39327 11.5866 3.69709 11.1243 3.69709 10.5695C3.69709 9.98825 3.36685 9.50609 2.9045 9.22869V5.75451L7.26373 6.80469C6.69571 7.94073 6.33905 9.20887 6.33905 10.5695C6.33905 15.2391 10.1237 19.0237 14.7933 19.0237C19.463 19.0237 23.2476 15.2391 23.2476 10.5695C23.2476 9.20887 22.8975 7.94073 22.3229 6.80469L28.6834 5.27236C29.8855 4.98174 29.8855 3.48243 28.6834 3.19182L16.1077 0.153564C15.2491 -0.0511879 14.3442 -0.0511879 13.4855 0.153564L0.896615 3.18521C-0.298872 3.47583 -0.298872 4.98174 0.896615 5.27236Z" fill="#FFE7B6"></path><path d="M14.8754 27.0169L8.76441 21.2275C2.84642 21.4848 0.294827 26.052 0.0804074 28.3034C-0.241222 31.1981 0.402038 33.4495 2.01019 34.0928H25.8108C29.1557 34.3501 30.0992 31.3053 29.992 29.9116C29.4774 22.9644 23.881 20.9059 20.9863 21.2275L14.8754 27.0169Z" fill="#45B29D"></path></svg>