<svg xmlns="http://www.w3.org/2000/svg" width="33" height="33" viewBox="0 0 33 33" fill="none"><path d="M23.1683 23.8563C23.0996 23.3063 22.9621 22.6188 23.3058 22C23.3746 21.8625 23.4433 21.7938 23.5121 21.6563V21.5875C22.9621 21.5188 22.4121 21.5875 21.9308 21.7938L21.7246 21.8625C21.4496 22 21.1058 22.1375 20.6933 22.1375C20.0746 22.1375 19.5246 21.9313 18.9746 21.45C17.7371 20.35 17.4621 18.425 18.3558 17.05C18.6308 16.6375 18.9058 16.2938 19.2496 16.0188C19.7308 15.5375 20.0746 15.125 20.0746 14.7125C20.0746 14.575 20.0058 14.4375 20.0058 14.2313C20.0058 14.0938 19.9371 13.9563 19.9371 13.75C18.9746 12.1 18.1496 10.3813 17.7371 8.93751C17.5308 8.25001 17.4621 7.70001 17.4621 7.15001C17.4621 6.60001 17.5308 5.98126 17.6683 5.43126H17.5996C17.1183 5.70626 16.2933 6.25626 16.2933 6.94376V7.56251L15.6746 7.70001C15.5371 7.70001 15.4683 7.70001 15.3308 7.70001C14.9183 7.70001 14.5058 7.56251 14.0933 7.21876C13.6121 6.80626 13.3371 6.18751 13.3371 5.63751C13.3371 5.50001 13.3371 5.36251 13.4058 5.15626C13.4058 5.01876 13.4746 4.88126 13.4058 4.81251C13.4058 4.74376 13.3371 4.60626 13.1996 4.46876C13.1308 4.33126 12.9933 4.12501 12.9246 3.91876C12.7871 3.50626 12.7183 3.09376 12.7183 2.75001C12.7183 2.61251 12.7183 2.54376 12.7183 2.40626C12.6496 1.78751 12.2371 1.16876 11.7558 0.825012C10.2433 1.30626 8.79957 1.99376 7.42457 2.88751C7.69957 3.16251 7.97457 3.50626 8.18082 3.85001C8.66207 4.81251 8.59332 5.91251 8.04332 6.73751C8.18082 6.73751 8.24957 6.66876 8.38707 6.66876C8.59332 6.60001 8.79957 6.53126 9.07457 6.53126C10.1058 6.39376 10.9996 7.01251 11.6183 7.35626L12.9246 8.18126C13.2683 8.38751 13.6808 8.66251 13.8871 9.14376C14.3683 10.0375 13.9558 11.1375 13.2683 11.6875C12.7183 12.1688 12.0996 12.375 11.4808 12.5125L11.3433 12.5813C10.8621 12.7188 10.3808 12.925 10.1058 13.2688C9.96832 13.4063 9.89957 13.6813 9.76207 13.8875C9.55582 14.3 9.41832 14.7813 8.93707 15.125C8.73082 15.3313 8.45582 15.4688 8.24957 15.5375C8.24957 15.8125 8.18082 15.8125 8.11207 15.8813C7.49332 16.2938 7.21832 17.1875 7.49332 17.875C7.56207 18.0125 7.63082 18.0813 7.69957 18.15C7.83707 18.2875 8.11207 18.2875 8.38707 18.3563L10.7246 18.8375C11.3433 18.975 12.7871 19.25 13.2683 20.4875C13.3371 20.7625 13.4058 21.0375 13.4058 21.3125C13.4058 21.5188 13.4058 21.6563 13.4746 21.725C13.5433 21.8625 14.0246 21.9313 14.4371 22C15.0558 22.0688 15.8808 22.1375 16.4308 22.825C17.0496 23.5813 16.9808 24.6125 16.2246 25.9875L14.8496 28.325C14.4371 29.0813 13.9558 29.9063 13.1996 30.525C13.0621 30.6625 12.9246 30.7313 12.7871 30.8688C12.5808 31.075 12.3058 31.2813 12.1683 31.4188C12.0308 31.625 12.0308 31.8313 12.0308 31.9L11.9621 31.9688C13.4058 32.3813 14.9871 32.6563 16.5683 32.6563C19.5933 32.6563 22.4808 31.8313 25.0246 30.25C23.9933 28.9438 23.7871 27.1563 23.5808 25.85L23.1683 23.8563Z" fill="#45B29D"></path><path d="M7.28672 26.125C6.80547 25.5062 6.18672 24.8875 6.04922 23.925C5.91172 23.1 6.18672 22.4125 6.46172 21.7937C6.66797 21.3125 6.80547 20.7625 6.80547 20.35C6.73672 19.8687 6.25547 19.4562 5.77422 19.4562C5.63672 19.4562 5.49922 19.4562 5.43047 19.4562C4.94922 19.4562 4.26172 19.525 3.78047 19.0437C3.57422 18.8375 3.43672 18.6312 3.36797 18.425C3.36797 18.3562 3.29922 18.2875 3.29922 18.2187C3.16172 18.0812 2.74922 18.0812 2.40547 18.0812C2.19922 18.0812 1.99297 18.0812 1.78672 18.0812C1.30547 18.0812 0.892969 17.9437 0.480469 17.7375C0.686719 21.5187 2.19922 25.0937 5.01797 27.9125C5.70547 28.6 6.53047 29.2875 7.35547 29.8375C7.90547 29.0125 8.31797 28.1187 8.11172 27.3625C7.97422 26.95 7.63047 26.5375 7.28672 26.125Z" fill="#45B29D"></path><path d="M25.7812 10.3125C27.4899 10.3125 28.875 8.92738 28.875 7.21875C28.875 5.51012 27.4899 4.125 25.7812 4.125C24.0726 4.125 22.6875 5.51012 22.6875 7.21875C22.6875 8.92738 24.0726 10.3125 25.7812 10.3125Z" fill="#FFE27A"></path><path d="M32.2438 12.8563C32.1063 13.1313 31.9001 13.4062 31.7626 13.6812C31.6938 13.75 31.6251 13.8187 31.6251 13.9562C31.4876 14.1625 31.4188 14.3688 31.2813 14.575C31.2126 14.6438 31.1438 14.7813 31.0751 14.85C30.9376 15.0563 30.8688 15.1937 30.7313 15.4C30.6626 15.5375 30.5938 15.6062 30.5251 15.7437C30.3876 15.8812 30.3188 16.0875 30.1813 16.225C30.1126 16.3625 30.0438 16.4313 29.9751 16.5688C29.8376 16.7063 29.7688 16.9125 29.6313 17.05C29.5626 17.1187 29.4938 17.2563 29.4251 17.325C29.2876 17.5313 29.2188 17.6688 29.0813 17.875C29.0126 17.9438 29.0126 18.0125 28.9438 18.0812C28.8063 18.2875 28.6001 18.5625 28.4626 18.7687C28.3938 18.8375 28.3938 18.8375 28.3251 18.9062C28.1876 19.0437 28.1188 19.25 27.9813 19.3875C27.9126 19.4563 27.8438 19.525 27.8438 19.5938C27.7751 19.7312 27.7063 19.8 27.5688 19.9375C27.5001 20.0062 27.4313 20.075 27.4313 20.1437C27.3626 20.2125 27.2938 20.35 27.2251 20.4188C27.1563 20.4875 27.1563 20.5562 27.0876 20.625C27.0188 20.6937 26.9501 20.7625 26.9501 20.8312C26.8813 20.9 26.8813 20.9688 26.8126 20.9688C26.7438 21.0375 26.7438 21.1062 26.6751 21.175C26.6063 21.2437 26.6063 21.2437 26.6063 21.3125C26.5376 21.3812 26.5376 21.3813 26.5376 21.45L26.4688 21.5187C26.4001 21.5875 26.4001 21.5875 26.4001 21.5875L25.7813 22.3438L25.1626 21.5875C25.1626 21.5875 25.1626 21.5875 25.0938 21.5187C25.0251 21.8625 24.8876 22.1375 24.7501 22.3438C24.6813 22.4125 24.6813 22.4812 24.6126 22.55C24.4751 22.825 24.5438 23.2375 24.6126 23.5812L24.8876 25.575C25.0938 27.0875 25.3688 28.3938 26.1251 29.3563C26.7438 28.875 27.3626 28.3938 27.9126 27.8438C31.9001 23.9938 33.4813 18.2188 32.2438 12.8563Z" fill="#45B29D"></path><path d="M1.7875 16.7063H2.26875C2.95625 16.7063 3.85 16.6375 4.4 17.3938C4.5375 17.5313 4.60625 17.7375 4.675 17.8063C4.675 17.875 4.74375 17.9438 4.74375 18.0125C4.8125 18.0813 5.0875 18.0125 5.29375 18.0125H5.84375H5.98125C5.70625 16.775 6.25625 15.3313 7.35625 14.575C7.49375 14.5063 7.5625 14.4375 7.7 14.3688C7.8375 14.3 7.975 14.2313 8.04375 14.1625C8.18125 14.025 8.31875 13.75 8.45625 13.475C8.59375 13.2 8.73125 12.7875 9.00625 12.5125C9.4875 11.8938 10.2437 11.55 10.9312 11.3438L11.1375 11.275C11.6188 11.1375 12.1 11 12.375 10.725C12.5813 10.5188 12.7188 10.175 12.65 10.0375C12.5813 9.9 12.375 9.7625 12.1688 9.625L10.8625 8.8C10.3125 8.45625 9.7625 8.1125 9.28125 8.18125C9.14375 8.18125 9.00625 8.25 8.86875 8.25C8.59375 8.31875 8.31875 8.3875 7.975 8.3875C7.49375 8.3875 6.94375 8.1125 6.66875 7.76875C6.39375 7.425 6.325 7.08125 6.4625 6.66875C6.53125 6.39375 6.7375 6.1875 6.80625 6.05L6.875 5.98125C7.08125 5.70625 7.15 5.15625 6.875 4.675C6.66875 4.5375 6.4625 4.2625 6.1875 4.05625C5.775 4.4 5.3625 4.74375 5.01875 5.0875C1.99375 8.1125 0.4125 12.0313 0.34375 16.0188L0.4125 15.95C0.75625 16.3625 1.2375 16.6375 1.7875 16.7063Z" fill="#45B29D"></path><path d="M13.4754 27.5L14.8504 25.1625C15.2629 24.475 15.4004 23.925 15.1941 23.7188C15.0566 23.5125 14.5754 23.5125 14.1629 23.4437C13.4754 23.375 12.5129 23.2375 12.1004 22.4125C11.8941 22.0687 11.8941 21.6563 11.8254 21.3813C11.8254 21.2438 11.8254 21.0375 11.7566 20.9688C11.6191 20.5562 10.9316 20.4187 10.3816 20.2812L8.18164 19.9375C8.18164 20.0063 8.25039 20.1437 8.25039 20.2125C8.38789 21.0375 8.11289 21.725 7.83789 22.3438C7.63164 22.825 7.49414 23.3063 7.49414 23.7188C7.56289 24.2 7.90664 24.6125 8.31914 25.0938C8.73164 25.575 9.21289 26.1937 9.48789 26.8812C9.90039 28.2562 9.21289 29.6313 8.52539 30.525C9.14414 30.8688 9.76289 31.1438 10.3816 31.4188C10.4504 31.075 10.5879 30.7312 10.7941 30.4562C11.0691 30.1125 11.4129 29.8375 11.6879 29.5625C11.8254 29.4937 11.8941 29.3562 12.0316 29.2875C12.6504 28.875 13.0629 28.1875 13.4754 27.5Z" fill="#45B29D"></path><path d="M20.2133 1.03123C20.282 0.962476 20.3508 0.893726 20.4195 0.824976C20.3508 0.824976 20.2133 0.756226 20.1445 0.756226C20.1445 0.824976 20.1445 0.962476 20.2133 1.03123C20.1445 1.03123 20.1445 1.03123 20.2133 1.03123Z" fill="black"></path><path d="M14.2305 2.95625C14.2305 3.23125 14.2305 3.4375 14.2992 3.575C14.368 3.7125 14.4367 3.78125 14.4367 3.85C14.5742 4.05625 14.7805 4.33125 14.8492 4.74375C14.918 5.01875 14.8492 5.29375 14.8492 5.56875V5.84375C14.8492 5.9125 14.918 6.05 14.918 6.11875C15.193 5.5 15.743 4.8125 16.843 4.19375L17.0492 4.125C17.7367 3.7125 18.4242 3.36875 18.6305 2.75C18.768 2.40625 18.768 1.925 18.6992 1.375C18.6992 1.1 18.6992 0.75625 18.6992 0.48125C18.0117 0.4125 17.3242 0.34375 16.568 0.34375C15.5367 0.34375 14.5055 0.4125 13.543 0.61875C13.9555 1.16875 14.2305 1.7875 14.2992 2.475C14.2305 2.6125 14.2305 2.81875 14.2305 2.95625Z" fill="#45B29D"></path><path d="M19.5935 17.875C19.1123 18.6312 19.2498 19.8 19.9373 20.35C20.1435 20.5563 20.4185 20.625 20.556 20.625C20.6935 20.625 20.8998 20.5563 21.106 20.4188L21.381 20.35C22.206 20.0063 23.0998 19.9375 23.9248 20.075H24.0623C23.306 18.975 22.206 17.4625 21.1748 15.8125C20.8998 16.225 20.556 16.6375 20.281 16.9813C20.006 17.325 19.731 17.6 19.5935 17.875Z" fill="#45B29D"></path><path d="M25.7812 19.9375C27.0875 18.2188 30.1125 13.8875 31.6937 10.45C32.3125 9.075 32.6562 7.975 32.6562 7.21875C32.6562 3.4375 29.5625 0.34375 25.7812 0.34375C24.6125 0.34375 23.5812 0.61875 22.55 1.16875L22.275 1.30625C21.8625 1.58125 21.5187 1.85625 21.175 2.13125C19.7312 3.4375 18.9062 5.29375 18.9062 7.21875C18.9062 7.5625 18.975 8.04375 19.1125 8.59375C20.2125 12.1 24.1312 17.7375 25.7812 19.9375ZM25.7812 2.6125C28.325 2.6125 30.3875 4.675 30.3875 7.21875C30.3875 9.7625 28.325 11.825 25.7812 11.825C23.2375 11.825 21.175 9.7625 21.175 7.21875C21.175 4.675 23.3063 2.6125 25.7812 2.6125Z" fill="#FFE27A"></path></svg>