<svg xmlns="http://www.w3.org/2000/svg" width="50" height="48" viewBox="0 0 50 48" fill="none"><path fill-rule="evenodd" clip-rule="evenodd" d="M10.9375 27.5269C10.9375 25.6542 12.4159 23.9617 14.2168 23.7494L25 22.4778L35.7832 23.7494C37.5943 23.9629 39.0625 25.6541 39.0625 27.5269V33.4553H10.9375V27.5269Z" fill="#45B29D"></path><path fill-rule="evenodd" clip-rule="evenodd" d="M19.916 18.6447C17.4103 16.267 15.7539 12.4164 15.7539 9.19016C15.7539 4.11458 19.8535 0 24.9106 0C29.9677 0 34.0673 4.11458 34.0673 9.19016C34.0673 12.4164 32.4109 16.267 29.9051 18.6447V24.2286C29.9051 24.2286 26.5193 25.4389 24.9106 25.4389C23.3019 25.4389 19.916 24.2286 19.916 24.2286V18.6447Z" fill="#FFE7B6"></path><path d="M17.4192 15.8739C18.7984 15.8739 19.9164 14.7518 19.9164 13.3675C19.9164 11.9833 18.7984 10.8611 17.4192 10.8611C16.0399 10.8611 14.9219 11.9833 14.9219 13.3675C14.9219 14.7518 16.0399 15.8739 17.4192 15.8739Z" fill="#FFE7B6"></path><path d="M32.4035 15.874C33.7827 15.874 34.9008 14.7518 34.9008 13.3676C34.9008 11.9833 33.7827 10.8611 32.4035 10.8611C31.0243 10.8611 29.9062 11.9833 29.9062 13.3676C29.9062 14.7518 31.0243 15.874 32.4035 15.874Z" fill="#FFE7B6"></path><path fill-rule="evenodd" clip-rule="evenodd" d="M4.37117 46.219C4.06604 46.0579 3.57455 46.0562 3.2662 46.219L1.82498 46.9801C1.51985 47.1413 1.31912 46.9988 1.37801 46.6539L1.65326 45.0418C1.71153 44.7005 1.56126 44.2304 1.31181 43.9862L0.145835 42.8445C-0.10102 42.6027 -0.0281792 42.3669 0.316562 42.3166L1.92789 42.0814C2.26904 42.0316 2.66766 41.7428 2.82183 41.429L3.54244 39.9623C3.69501 39.6517 3.94076 39.6484 4.09493 39.9623L4.81554 41.429C4.9681 41.7395 5.36474 42.0311 5.70948 42.0814L7.32081 42.3166C7.66195 42.3664 7.74099 42.6002 7.49154 42.8445L6.32557 43.9862C6.07871 44.2279 5.92522 44.6969 5.98411 45.0418L6.25936 46.6539C6.31764 46.9952 6.12074 47.143 5.81239 46.9801L4.37117 46.219ZM26.234 46.219C25.9289 46.0579 25.4374 46.0562 25.1291 46.219L23.6878 46.9801C23.3827 47.1413 23.182 46.9988 23.2409 46.6539L23.5161 45.0418C23.5744 44.7005 23.4241 44.2304 23.1747 43.9862L22.0087 42.8445C21.7618 42.6027 21.8347 42.3669 22.1794 42.3166L23.7908 42.0814C24.1319 42.0316 24.5305 41.7428 24.6847 41.429L25.4053 39.9623C25.5579 39.6517 25.8036 39.6484 25.9578 39.9623L26.6784 41.429C26.831 41.7395 27.2276 42.0311 27.5723 42.0814L29.1837 42.3166C29.5248 42.3664 29.6039 42.6002 29.3544 42.8445L28.1884 43.9862C27.9416 44.2279 27.7881 44.6969 27.847 45.0418L28.1222 46.6539C28.1805 46.9952 27.9836 47.143 27.6753 46.9801L26.234 46.219ZM15.2987 46.219C14.9936 46.0579 14.5021 46.0562 14.1937 46.219L12.7525 46.9801C12.4474 47.1413 12.2467 46.9988 12.3056 46.6539L12.5808 45.0418C12.6391 44.7005 12.4888 44.2304 12.2393 43.9862L11.0734 42.8445C10.8265 42.6027 10.8994 42.3669 11.2441 42.3166L12.8554 42.0814C13.1966 42.0316 13.5952 41.7428 13.7494 41.429L14.47 39.9623C14.6225 39.6517 14.8683 39.6484 15.0225 39.9623L15.7431 41.429C15.8956 41.7395 16.2923 42.0311 16.637 42.0814L18.2484 42.3166C18.5895 42.3664 18.6685 42.6002 18.4191 42.8445L17.2531 43.9862C17.0063 44.2279 16.8528 44.6969 16.9116 45.0418L17.1869 46.6539C17.2452 46.9952 17.0483 47.143 16.7399 46.9801L15.2987 46.219Z" fill="#FFE27A"></path><path d="M35.8 46.219C36.1084 46.0562 36.5999 46.0579 36.905 46.219L38.3462 46.9801C38.6545 47.143 38.8514 46.9952 38.7932 46.6539L38.5179 45.0418C38.459 44.6969 38.6125 44.2279 38.8594 43.9861L40.0254 42.8445C40.2748 42.6002 40.1958 42.3664 39.8546 42.3166L38.2433 42.0814C37.8986 42.0311 37.5019 41.7395 37.3494 41.429L36.6287 39.9622C36.4746 39.6484 36.2288 39.6517 36.0763 39.9622L35.3557 41.429C35.2015 41.7428 34.8029 42.0316 34.4617 42.0814L32.8504 42.3166C32.5056 42.3669 32.4328 42.6027 32.6796 42.8445L33.8456 43.9861C34.0951 44.2304 34.2453 44.7005 34.1871 45.0418L33.9118 46.6539C33.8529 46.9988 34.0537 47.1413 34.3588 46.9801L35.8 46.219Z" fill="#FFE27A"></path><path d="M45.6287 46.219C45.9371 46.0562 46.4286 46.0579 46.7337 46.219L48.1749 46.9801C48.4833 47.143 48.6802 46.9952 48.6219 46.6539L48.3466 45.0418C48.2878 44.6969 48.4412 44.2279 48.6881 43.9861L49.8541 42.8445C50.1035 42.6002 50.0245 42.3664 49.6833 42.3166L48.072 42.0814C47.7273 42.0311 47.3306 41.7395 47.1781 41.429L46.4575 39.9622C46.3033 39.6484 46.0575 39.6517 45.905 39.9622L45.1844 41.429C45.0302 41.7428 44.6316 42.0316 44.2904 42.0814L42.6791 42.3166C42.3343 42.3669 42.2615 42.6027 42.5084 42.8445L43.6743 43.9861C43.9238 44.2304 44.0741 44.7005 44.0158 45.0418L43.7405 46.6539C43.6816 46.9988 43.8824 47.1413 44.1875 46.9801L45.6287 46.219Z" fill="#FFE27A"></path></svg>