<svg xmlns="http://www.w3.org/2000/svg" width="128" height="124" viewBox="0 0 128 124" fill="none"><path d="M46.578 71.3947V115.968C46.5838 116.946 46.3961 117.916 46.0257 118.822C45.6553 119.727 45.1094 120.551 44.4196 121.245C43.7298 121.939 42.9095 122.49 42.0061 122.865C41.1026 123.241 40.1338 123.435 39.1553 123.435C38.1768 123.435 37.208 123.241 36.3045 122.865C35.401 122.49 34.5808 121.939 33.891 121.245C33.2011 120.551 32.6553 119.727 32.2849 118.822C31.9144 117.916 31.7267 116.946 31.7326 115.968V71.3947C31.7442 69.4337 32.5314 67.5569 33.9221 66.1744C35.3129 64.7919 37.1943 64.0159 39.1553 64.0159C41.1163 64.0159 42.9977 64.7919 44.3884 66.1744C45.7792 67.5569 46.5664 69.4337 46.578 71.3947Z" fill="#45B29D"></path><path d="M42.2976 116.956V70.407C42.3064 69.1509 42.0132 67.9109 41.4428 66.7917C40.8724 65.6724 40.0414 64.7066 39.0198 63.9756C39.0651 63.9756 39.1101 63.9722 39.1556 63.9722C41.1242 63.9722 43.0122 64.7542 44.4042 66.1462C45.7962 67.5382 46.5782 69.4262 46.5782 71.3948V115.968C46.5783 116.943 46.3863 117.908 46.0133 118.808C45.6403 119.709 45.0935 120.527 44.4043 121.217C43.715 121.906 42.8968 122.453 41.9962 122.826C41.0956 123.199 40.1304 123.391 39.1556 123.391C39.1101 123.391 39.0651 123.388 39.0195 123.387C40.0412 122.656 40.8722 121.69 41.4427 120.571C42.0132 119.452 42.3063 118.212 42.2976 116.956Z" fill="white"></path><path d="M86.3929 96.9824C90.5508 96.9824 93.738 99.8352 93.738 103.192C93.738 103.99 93.5809 104.781 93.2755 105.518C92.9701 106.255 92.5225 106.925 91.9582 107.489C91.394 108.054 90.7241 108.501 89.9868 108.807C89.2495 109.112 88.4592 109.27 87.6612 109.27L84.0175 109.231L84.0102 109.27C84.794 109.27 85.57 109.427 86.2921 109.732C87.0141 110.037 87.6677 110.483 88.2142 111.045C88.7606 111.607 89.1888 112.273 89.4734 113.004C89.758 113.734 89.8932 114.514 89.8711 115.298C89.7834 118.49 87.0828 120.996 83.888 120.996H56.954C55.7574 120.996 54.5761 120.727 53.4977 120.208L46.5781 115.969V71.3947C46.5781 71.3947 61.5626 69.721 72.5493 49.2641C74.7432 45.1791 79.6963 45.4922 81.9471 49.4012C88.5248 60.826 74.2627 73.3265 74.2627 73.3265L88.7245 72.807C90.3363 72.807 91.882 73.4473 93.0217 74.5871C94.1614 75.7268 94.8016 77.2726 94.8016 78.8843C94.8018 79.6752 94.6446 80.4582 94.3392 81.1877C94.0338 81.9172 93.5862 82.5787 93.0227 83.1335C92.4591 83.6884 91.7907 84.1255 91.0566 84.4195C90.3224 84.7135 89.537 84.8585 88.7463 84.846L89.8732 84.8544C90.6746 84.8491 91.4691 85.0024 92.211 85.3055C92.9529 85.6085 93.6276 86.0553 94.1961 86.6201C94.7647 87.1849 95.2159 87.8566 95.5238 88.5966C95.8317 89.3365 95.9902 90.13 95.9902 90.9314C95.9902 91.7328 95.8317 92.5263 95.5238 93.2662C95.2159 94.0061 94.7647 94.6778 94.1961 95.2426C93.6276 95.8074 92.9529 96.2542 92.211 96.5573C91.4691 96.8603 90.6746 97.0136 89.8732 97.0084L86.3929 96.9824Z" fill="#FAE083"></path><path d="M72.2826 70.1108C72.2826 70.1108 78.3398 64.6584 80.1187 57.7462C81.6736 51.7046 77.0681 46.3352 77.0681 46.3352C78.9143 46.3318 80.7895 47.3884 81.9484 49.401C88.5261 60.8258 74.264 73.3263 74.264 73.3263C72.1894 73.3354 70.6301 71.763 72.2826 70.1108ZM78.0404 96.9676H90.5584C92.0006 96.8035 93.3364 96.1282 94.3236 95.0641C95.3108 93.9999 95.8841 92.6173 95.9396 91.1668C94.2177 92.6673 92.0313 93.1865 89.3851 93.1865H78.0404C75.3897 93.1865 75.3897 96.9676 78.0404 96.9676ZM78.4131 84.8461H88.7473C89.5381 84.8586 90.3234 84.7136 91.0576 84.4196C91.7918 84.1256 92.4601 83.6884 93.0237 83.1336C93.5873 82.5787 94.0348 81.9173 94.3402 81.1878C94.6456 80.4583 94.8029 79.6753 94.8027 78.8844C94.8027 78.82 94.7951 78.7577 94.7933 78.6941C93.0172 80.4667 90.7039 81.0648 87.8606 81.0648H78.4125C75.7634 81.0648 75.7637 84.8461 78.4131 84.8461ZM75.1678 109.254H84.0138L84.0183 109.231L86.2078 109.254H87.9642C89.2312 109.191 90.4466 108.734 91.44 107.945C92.4333 107.156 93.1547 106.076 93.5027 104.856C92.1675 105.298 90.766 105.507 89.3597 105.473H75.1685C72.5181 105.473 72.5173 109.254 75.1678 109.254ZM46.5781 111.495V115.968L53.4977 120.208C54.5761 120.726 55.7574 120.995 56.954 120.995H83.8887C87.0835 120.995 89.7842 118.491 89.8719 115.297C88.0286 116.645 86.2 117.286 84.0138 117.286H56.4426L46.5781 111.495Z" fill="#FAE083"></path><path d="M97.8197 13.5948L98.8381 20.841C98.8923 21.2271 99.0674 21.586 99.3382 21.8664C99.609 22.1469 99.9617 22.3343 100.346 22.4019L107.552 23.6726C107.935 23.7406 108.288 23.9281 108.558 24.2085C108.828 24.4888 109.003 24.8475 109.058 25.2332C109.112 25.6189 109.043 26.0119 108.86 26.3559C108.677 26.7 108.39 26.9774 108.04 27.1485L101.464 30.3574C101.113 30.5282 100.826 30.8056 100.643 31.1498C100.46 31.4939 100.391 31.8872 100.445 32.2732L101.463 39.5197C101.517 39.9056 101.448 40.2989 101.265 40.643C101.082 40.9871 100.795 41.2645 100.444 41.4353C100.094 41.6062 99.6987 41.6618 99.3148 41.5942C98.931 41.5265 98.5784 41.3391 98.3076 41.0588L93.2245 35.7949C92.9536 35.5145 92.601 35.327 92.2171 35.2593C91.8331 35.1917 91.4376 35.2473 91.0873 35.4183L84.5105 38.6259C84.1602 38.7967 83.7648 38.8523 83.3809 38.7846C82.997 38.7169 82.6445 38.5294 82.3737 38.249C82.1029 37.9686 81.9279 37.6097 81.8736 37.2237C81.8193 36.8377 81.8886 36.4445 82.0716 36.1003L85.5069 29.6392C85.6898 29.2951 85.7591 28.9018 85.7049 28.5158C85.6506 28.1299 85.4756 27.771 85.2049 27.4905L80.1218 22.2266C79.8509 21.9462 79.6758 21.5872 79.6215 21.2011C79.5672 20.815 79.6366 20.4217 79.8197 20.0775C80.0028 19.7333 80.2902 19.4559 80.6407 19.2851C80.9911 19.1143 81.3867 19.0589 81.7706 19.1268L88.9768 20.3974C89.3607 20.4651 89.7561 20.4095 90.1065 20.2386C90.4569 20.0677 90.7441 19.7903 90.9271 19.4461L94.3627 12.985C94.5458 12.6411 94.8331 12.364 95.1834 12.1934C95.5336 12.0227 95.9289 11.9672 96.3126 12.0349C96.6963 12.1026 97.0487 12.2899 97.3195 12.5701C97.5902 12.8504 97.7653 13.209 97.8197 13.5948Z" fill="#FFE27A"></path><path d="M92.1664 35.2545C91.7984 35.1985 91.422 35.2556 91.0871 35.4183L84.5101 38.6259C84.1598 38.7968 83.7643 38.8525 83.3804 38.7848C82.9965 38.7171 82.6439 38.5296 82.3731 38.2492C82.1023 37.9688 81.9273 37.6098 81.8731 37.2238C81.8189 36.8378 81.8883 36.4445 82.0714 36.1003L85.5067 29.6393C85.6896 29.2951 85.759 28.9018 85.7047 28.5159C85.6504 28.1299 85.4754 27.771 85.2047 27.4906L80.1216 22.2282C79.8508 21.9478 79.6757 21.5888 79.6215 21.2027C79.5672 20.8166 79.6366 20.4233 79.8197 20.0791C80.0028 19.7349 80.2901 19.4575 80.6405 19.2867C80.991 19.1158 81.3865 19.0603 81.7704 19.1281L88.9766 20.3988C89.3605 20.4664 89.756 20.4108 90.1064 20.2399C90.4568 20.069 90.7441 19.7916 90.9272 19.4474L94.3622 12.9864C94.548 12.6267 94.8489 12.3397 95.2168 12.1709C95.5848 12.0021 95.9986 11.9614 96.3924 12.0552L92.1667 35.2537L92.1664 35.2545Z" fill="#FFE27A"></path><path d="M120.226 25.402L120.03 31.0263C120.019 31.3259 120.104 31.6212 120.271 31.8697C120.439 32.1183 120.681 32.3073 120.963 32.4098L126.251 34.3347C126.533 34.4372 126.775 34.6263 126.943 34.8748C127.11 35.1234 127.195 35.4186 127.184 35.7182C127.174 36.0178 127.069 36.3065 126.884 36.5427C126.7 36.7789 126.445 36.9507 126.157 37.0333L120.747 38.5845C120.459 38.6671 120.204 38.8388 120.02 39.075C119.835 39.3112 119.73 39.5998 119.72 39.8994L119.523 45.5237C119.513 45.8233 119.408 46.1118 119.223 46.348C119.039 46.5841 118.784 46.7558 118.496 46.8385C118.208 46.9211 117.901 46.9104 117.619 46.8079C117.337 46.7055 117.095 46.5165 116.928 46.268L113.781 41.6024C113.613 41.3539 113.371 41.1648 113.089 41.0623C112.808 40.9598 112.501 40.949 112.213 41.0316L106.803 42.5828C106.515 42.6654 106.208 42.6546 105.926 42.5521C105.644 42.4496 105.402 42.2605 105.235 42.012C105.067 41.7635 104.983 41.4683 104.993 41.1687C105.003 40.8691 105.109 40.5805 105.293 40.3443L108.758 35.9097C108.942 35.6735 109.047 35.3849 109.058 35.0852C109.068 34.7856 108.984 34.4904 108.816 34.2418L105.669 29.5761C105.501 29.3276 105.417 29.0324 105.427 28.7328C105.438 28.4332 105.543 28.1445 105.727 27.9083C105.912 27.6721 106.167 27.5003 106.455 27.4177C106.743 27.3351 107.05 27.3458 107.332 27.4484L112.62 29.3733C112.902 29.4758 113.208 29.4864 113.497 29.4038C113.785 29.3211 114.039 29.1494 114.224 28.9132L117.69 24.4792C117.875 24.2435 118.129 24.0723 118.417 23.99C118.705 23.9077 119.011 23.9185 119.293 24.0209C119.574 24.1232 119.816 24.312 119.983 24.56C120.151 24.8081 120.236 25.1028 120.226 25.402Z" fill="#FFE27A"></path><path d="M112.213 41.0315L106.803 42.5827C106.515 42.6653 106.208 42.6546 105.926 42.5521C105.644 42.4495 105.402 42.2605 105.235 42.0119C105.067 41.7634 104.983 41.4682 104.993 41.1687C105.003 40.8691 105.109 40.5805 105.293 40.3443L108.758 35.9097C108.942 35.6735 109.047 35.3849 109.058 35.0852C109.068 34.7856 108.984 34.4903 108.816 34.2418L105.669 29.5761C105.501 29.3276 105.417 29.0323 105.427 28.7327C105.438 28.4331 105.543 28.1445 105.727 27.9083C105.912 27.672 106.167 27.5003 106.455 27.4177C106.743 27.3351 107.05 27.3458 107.332 27.4483L112.62 29.3733C112.902 29.4757 113.208 29.4864 113.497 29.4038C113.785 29.3211 114.039 29.1494 114.224 28.9132L117.69 24.4791C117.871 24.2404 118.125 24.0666 118.413 23.9834C118.701 23.9002 119.008 23.9122 119.289 24.0175L112.99 41.0302V41.0344C112.736 40.9609 112.467 40.9599 112.213 41.0315Z" fill="#FFE27A"></path><path d="M32.8243 12.9851L36.2599 19.4461C36.4429 19.7903 36.7301 20.0677 37.0805 20.2386C37.4308 20.4095 37.8263 20.4651 38.2102 20.3975L45.4164 19.1268C45.8003 19.0589 46.1958 19.1143 46.5463 19.2851C46.8968 19.4559 47.1842 19.7333 47.3673 20.0775C47.5504 20.4217 47.6198 20.8151 47.5655 21.2011C47.5112 21.5872 47.3361 21.9462 47.0652 22.2266L41.9821 27.4906C41.7114 27.771 41.5363 28.1299 41.4821 28.5159C41.4278 28.9018 41.4971 29.2951 41.6801 29.6393L45.1162 36.0993C45.2991 36.4434 45.3684 36.8367 45.3142 37.2227C45.2599 37.6087 45.0848 37.9676 44.8141 38.248C44.5433 38.5284 44.1907 38.7158 43.8069 38.7835C43.423 38.8512 43.0276 38.7957 42.6772 38.6249L36.0992 35.4188C35.7488 35.2479 35.3533 35.1922 34.9694 35.2599C34.5855 35.3275 34.2328 35.515 33.962 35.7954L28.8789 41.0588C28.6081 41.3392 28.2555 41.5266 27.8716 41.5942C27.4878 41.6618 27.0924 41.6062 26.7421 41.4354C26.3918 41.2645 26.1045 40.9871 25.9215 40.643C25.7385 40.2989 25.6691 39.9056 25.7233 39.5197L26.7417 32.2732C26.7959 31.8872 26.7265 31.4939 26.5435 31.1498C26.3605 30.8056 26.0732 30.5282 25.7228 30.3574L19.1461 27.1485C18.7957 26.9776 18.5085 26.7002 18.3254 26.356C18.1424 26.0118 18.0731 25.6185 18.1273 25.2325C18.1816 24.8465 18.3567 24.4876 18.6274 24.2072C18.8982 23.9267 19.2508 23.7393 19.6347 23.6716L26.8409 22.4009C27.2248 22.3333 27.5774 22.1458 27.8483 21.8654C28.1191 21.585 28.2941 21.2261 28.3484 20.84L29.3667 13.5938C29.4212 13.2079 29.5964 12.8492 29.8672 12.5689C30.138 12.2887 30.4906 12.1014 30.8744 12.0338C31.2582 11.9662 31.6536 12.0219 32.0039 12.1928C32.3541 12.3636 32.6413 12.641 32.8243 12.9851Z" fill="#FFE27A"></path><path d="M34.8983 35.2777C34.5419 35.3535 34.2161 35.5335 33.9622 35.7949L28.8791 41.0588C28.6083 41.3391 28.2557 41.5265 27.8718 41.5942C27.488 41.6618 27.0926 41.6062 26.7423 41.4353C26.392 41.2645 26.1047 40.9871 25.9217 40.643C25.7387 40.2988 25.6693 39.9056 25.7235 39.5196L26.7419 32.2732C26.7961 31.8872 26.7267 31.4939 26.5437 31.1498C26.3606 30.8056 26.0734 30.5282 25.723 30.3574L19.146 27.1485C18.7956 26.9776 18.5084 26.7001 18.3254 26.3559C18.1424 26.0117 18.0731 25.6184 18.1274 25.2324C18.1816 24.8464 18.3567 24.4874 18.6275 24.207C18.8984 23.9266 19.251 23.7392 19.6349 23.6715L26.8411 22.4009C27.225 22.3333 27.5777 22.1458 27.8485 21.8654C28.1193 21.585 28.2944 21.226 28.3486 20.84L29.3669 13.5938C29.4136 13.2245 29.5735 12.8787 29.8247 12.604C30.0758 12.3292 30.4059 12.139 30.7695 12.0593L34.8962 35.2738L34.8983 35.2777Z" fill="#FFE27A"></path><path d="M9.49679 24.4789L12.9614 28.9135C13.146 29.1497 13.4006 29.3214 13.6887 29.4041C13.9769 29.4867 14.2838 29.4761 14.5655 29.3736L19.8538 27.4487C20.1355 27.3461 20.4424 27.3354 20.7306 27.418C21.0188 27.5006 21.2734 27.6724 21.458 27.9086C21.6426 28.1448 21.7476 28.4334 21.7581 28.7331C21.7685 29.0327 21.6839 29.3279 21.5162 29.5764L18.3693 34.241C18.2017 34.4896 18.117 34.7849 18.1275 35.0845C18.138 35.3841 18.2431 35.6727 18.4277 35.909L21.8923 40.3435C22.0768 40.5798 22.1819 40.8683 22.1923 41.1679C22.2028 41.4675 22.1181 41.7627 21.9505 42.0112C21.7829 42.2597 21.5409 42.4488 21.2592 42.5513C20.9775 42.6539 20.6706 42.6646 20.3825 42.582L14.9727 41.0308C14.6845 40.9483 14.3776 40.959 14.0959 41.0615C13.8142 41.1641 13.5722 41.3531 13.4045 41.6016L10.2576 46.2678C10.0899 46.5162 9.84787 46.7052 9.56618 46.8077C9.28449 46.9102 8.97759 46.9208 8.68946 46.8382C8.40133 46.7556 8.14673 46.5839 7.96215 46.3477C7.77756 46.1116 7.67245 45.823 7.66188 45.5235L7.46559 39.8991C7.45513 39.5995 7.35008 39.311 7.16549 39.0747C6.98091 38.8385 6.72627 38.6668 6.43809 38.5843L1.02836 37.0331C0.74017 36.9504 0.485536 36.7787 0.300955 36.5425C0.116375 36.3062 0.0113256 36.0176 0.000864801 35.718C-0.00959603 35.4184 0.0750687 35.1231 0.242724 34.8746C0.410378 34.6261 0.652415 34.437 0.934141 34.3345L6.22243 32.409C6.50419 32.3066 6.74627 32.1175 6.91394 31.869C7.0816 31.6204 7.16624 31.3252 7.15572 31.0256L6.95943 25.4012C6.94923 25.1017 7.03407 24.8067 7.20181 24.5583C7.36955 24.31 7.61157 24.1211 7.89322 24.0188C8.17487 23.9164 8.48169 23.9058 8.76974 23.9884C9.05779 24.0711 9.31229 24.2428 9.49679 24.4789Z" fill="#FFE27A"></path><path d="M14.0756 41.0721C13.8024 41.1757 13.568 41.3612 13.4043 41.6031L10.2576 46.268C10.09 46.5165 9.84794 46.7055 9.56625 46.808C9.28456 46.9105 8.97766 46.9212 8.68951 46.8386C8.40137 46.7559 8.14678 46.5842 7.96222 46.348C7.77767 46.1118 7.67262 45.8232 7.66214 45.5237L7.46559 39.8993C7.45513 39.5997 7.35008 39.3111 7.16549 39.0749C6.98091 38.8387 6.72627 38.667 6.43809 38.5844L1.02836 37.0332C0.74017 36.9506 0.485536 36.7789 0.300955 36.5426C0.116375 36.3064 0.0113256 36.0178 0.000864801 35.7182C-0.00959603 35.4186 0.0750687 35.1233 0.242724 34.8748C0.410378 34.6262 0.652415 34.4372 0.934141 34.3347L6.224 32.4092C6.50569 32.3067 6.74769 32.1176 6.9153 31.8691C7.08291 31.6205 7.16753 31.3253 7.15703 31.0257L6.96048 25.4017C6.94711 25.1293 7.01449 24.859 7.15418 24.6247C7.29386 24.3905 7.49962 24.2027 7.74563 24.085L14.0771 41.0705L14.0756 41.0721Z" fill="#FFE27A"></path><path d="M66.1479 1.85676L69.4392 11.9868C69.6146 12.5265 69.9563 12.9968 70.4154 13.3303C70.8744 13.6638 71.4273 13.8435 71.9947 13.8435H82.6466C83.2141 13.8434 83.7669 14.0231 84.226 14.3566C84.6851 14.6901 85.0268 15.1604 85.2021 15.7001C85.3775 16.2397 85.3774 16.8211 85.2021 17.3607C85.0267 17.9004 84.6849 18.3706 84.2258 18.7041L75.6085 24.965C75.1494 25.2984 74.8077 25.7687 74.6324 26.3084C74.4571 26.848 74.4571 27.4293 74.6325 27.969L77.9239 38.099C78.0994 38.6388 78.0995 39.2202 77.9242 39.76C77.7489 40.2998 77.4071 40.7702 76.948 41.1037C76.4888 41.4373 75.9358 41.6169 75.3682 41.6168C74.8007 41.6166 74.2478 41.4368 73.7888 41.1031L65.1717 34.843C64.7126 34.5095 64.1598 34.3299 63.5925 34.3299C63.0251 34.3299 62.4723 34.5095 62.0132 34.843L53.3959 41.1031C52.9369 41.4368 52.3839 41.6166 51.8164 41.6168C51.2489 41.6169 50.6959 41.4373 50.2367 41.1037C49.7775 40.7702 49.4358 40.2998 49.2604 39.76C49.0851 39.2202 49.0852 38.6388 49.2607 38.099L52.5521 27.969C52.7275 27.4293 52.7276 26.848 52.5522 26.3084C52.3769 25.7687 52.0352 25.2984 51.5762 24.965L42.9593 18.7041C42.5002 18.3706 42.1584 17.9003 41.9831 17.3605C41.8077 16.8208 41.8077 16.2394 41.9832 15.6997C42.1586 15.16 42.5004 14.6897 42.9596 14.3562C43.4188 14.0228 43.9718 13.8433 44.5393 13.8435H55.1913C55.7587 13.8435 56.3115 13.6638 56.7706 13.3303C57.2297 12.9968 57.5713 12.5265 57.7467 11.9868L61.0381 1.85676C61.2136 1.31743 61.5553 0.847479 62.0142 0.514214C62.4732 0.18095 63.0258 0.00146484 63.593 0.00146484C64.1602 0.00146484 64.7128 0.18095 65.1717 0.514214C65.6306 0.847479 65.9723 1.31743 66.1479 1.85676Z" fill="#FFE27A"></path><path d="M63.5925 34.3294C63.025 34.3291 62.472 34.5087 62.013 34.8423L53.3959 41.1034C52.9368 41.4371 52.3839 41.6168 51.8164 41.6168C51.2489 41.6168 50.696 41.4372 50.2368 41.1036C49.7777 40.7701 49.436 40.2997 49.2606 39.76C49.0853 39.2203 49.0853 38.6389 49.2607 38.0992L52.5521 27.9691C52.7275 27.4294 52.7276 26.8481 52.5522 26.3085C52.3769 25.7688 52.0352 25.2986 51.5762 24.9651L42.9593 18.7042C42.5002 18.3707 42.1584 17.9004 41.9831 17.3606C41.8077 16.8209 41.8077 16.2395 41.9832 15.6998C42.1586 15.1601 42.5004 14.6898 42.9596 14.3563C43.4188 14.0229 43.9718 13.8434 44.5393 13.8436H55.1913C55.7587 13.8435 56.3115 13.6639 56.7706 13.3303C57.2296 12.9968 57.5713 12.5266 57.7467 11.987L61.0381 1.85687C61.2065 1.31323 61.5463 0.838667 62.0067 0.504043C62.4671 0.16942 63.0234 -0.00731425 63.5925 0.00023199V34.3294Z" fill="#FFE27A"></path></svg>