<svg xmlns="http://www.w3.org/2000/svg" width="132" height="132" viewBox="0 0 132 132" fill="none"><path d="M127.686 107.924H4.31445V126.523H127.686V107.924Z" fill="#FFE27A"></path><path d="M110.16 118.701L67.8633 121.63L63.8621 121.905L63.8363 121.908L62.7329 112.029L62.4286 112.137L62.72 112.103L63.7667 121.459L53.5728 121.594L44.3792 122.622C44.3408 122.628 44.2993 122.63 44.2609 122.63C43.8197 122.63 43.4487 122.352 43.4049 121.973C43.3791 121.73 43.3637 121.49 43.3637 121.251C43.3637 120.345 43.5545 119.464 43.8999 118.639L20.5034 117.02C15.7236 116.486 12.1452 112.57 11.8848 107.924H60.5105L67.9765 109.938L67.9484 110.198L76.3817 107.925H118.727C118.73 107.94 118.73 107.956 118.733 107.971C119.328 113.303 115.492 118.105 110.16 118.701Z" fill="white" fill-opacity="0.2"></path><path d="M99.7734 14.5317C99.0614 14.5317 98.4844 15.1087 98.4844 15.8208V17.1225C98.4844 17.8346 99.0614 18.4116 99.7734 18.4116C100.486 18.4116 101.062 17.8346 101.062 17.1225V15.8208C101.062 15.1087 100.486 14.5317 99.7734 14.5317Z" fill="#FFE27A"></path><path d="M99.7734 25.0436C100.486 25.0436 101.062 24.4666 101.062 23.7546V22.4531C101.062 21.741 100.486 21.1641 99.7734 21.1641C99.0614 21.1641 98.4844 21.741 98.4844 22.4531V23.7546C98.4844 24.4664 99.0614 25.0436 99.7734 25.0436Z" fill="#FFE27A"></path><path d="M98.3969 19.7878C98.3969 19.0758 97.8199 18.4988 97.1078 18.4988H95.8066C95.0946 18.4988 94.5176 19.0758 94.5176 19.7878C94.5176 20.4999 95.0946 21.0769 95.8066 21.0769H97.1078C97.8199 21.0769 98.3969 20.4999 98.3969 19.7878Z" fill="#FFE27A"></path><path d="M105.03 19.7878C105.03 19.0758 104.453 18.4988 103.741 18.4988H102.439C101.727 18.4988 101.15 19.0758 101.15 19.7878C101.15 20.4999 101.727 21.0769 102.439 21.0769H103.741C104.453 21.0769 105.03 20.4999 105.03 19.7878Z" fill="#FFE27A"></path><path d="M31.4824 47.2109C30.7703 47.2109 30.1934 47.7879 30.1934 48.5V49.8014C30.1934 50.5135 30.7703 51.0905 31.4824 51.0905C32.1945 51.0905 32.7715 50.5135 32.7715 49.8014V48.5C32.7715 47.7879 32.1945 47.2109 31.4824 47.2109Z" fill="#FFE27A"></path><path d="M31.4824 57.7226C32.1945 57.7226 32.7715 57.1456 32.7715 56.4335V55.1321C32.7715 54.42 32.1945 53.843 31.4824 53.843C30.7703 53.843 30.1934 54.42 30.1934 55.1321V56.4335C30.1934 57.1453 30.7703 57.7226 31.4824 57.7226Z" fill="#FFE27A"></path><path d="M30.1061 52.4668C30.1061 51.7547 29.5291 51.1777 28.8171 51.1777H27.5156C26.8035 51.1777 26.2266 51.7547 26.2266 52.4668C26.2266 53.1789 26.8035 53.7559 27.5156 53.7559H28.8171C29.5291 53.7559 30.1061 53.1789 30.1061 52.4668Z" fill="#FFE27A"></path><path d="M36.7389 52.4668C36.7389 51.7547 36.162 51.1777 35.4499 51.1777H34.1484C33.4364 51.1777 32.8594 51.7547 32.8594 52.4668C32.8594 53.1789 33.4364 53.7559 34.1484 53.7559H35.4499C36.1617 53.7559 36.7389 53.1789 36.7389 52.4668Z" fill="#FFE27A"></path><path d="M71.0724 48.9326H60.9102V58.2162H71.0724V48.9326Z" fill="#FAE083"></path><path d="M60.9102 58.2163V49.6711H71.0724L60.9102 58.2163Z" fill="#FAE083"></path><path d="M79.498 29.9993C81.905 29.9993 83.8561 31.9506 83.8561 34.3578C83.8561 36.765 81.905 38.7164 79.498 38.7164" fill="#FAE083"></path><path d="M82.4377 19.3495V32.4067C82.4377 33.9682 81.285 35.2601 79.7846 35.4798L69.8441 35.4587L66.2484 35.4512L51.6791 35.4208C50.1274 35.0542 48.9688 33.6609 48.9688 31.9965V23.2793C48.9688 13.5889 56.8955 5.45032 66.5861 5.47687H66.6109C67.9221 5.47893 69.0748 6.15079 69.7484 7.16632C69.7812 7.16632 69.8119 7.16632 69.8441 7.16838C76.5341 7.21968 82.4377 12.6539 82.4377 19.3495Z" fill="#565656"></path><path d="M82.4389 29.8319V32.4067C82.4389 33.9682 81.2863 35.2601 79.7858 35.4798L69.8453 35.4586L69.3413 35.4512L69.2995 18.6604C69.2995 18.6604 68.3644 16.4883 70.3377 16.4883H74.0654C76.8122 16.4883 79.0394 18.7153 79.0394 21.4623V23.1481C79.0394 25.7912 80.303 28.2752 82.4389 29.8319Z" fill="#565656"></path><path d="M51.9094 38.7167C49.5022 38.7167 47.5508 36.7653 47.5508 34.3581C47.5508 31.9509 49.5022 29.9995 51.9094 29.9995" fill="#FAE083"></path><path d="M69.3401 31.9313L69.3517 35.4205H51.6791C50.1274 35.0539 48.9688 33.6607 48.9688 31.9963V23.2794C48.9688 22.3347 49.0433 21.4051 49.19 20.4965C49.192 20.4911 49.192 20.4852 49.192 20.4813C49.192 20.4793 49.192 20.4772 49.192 20.4772C50.5414 12.0697 57.846 5.45214 66.5861 5.47663H66.6109C67.9221 5.47869 69.0748 6.15055 69.7484 7.16608C69.7526 7.16608 69.8059 7.27281 69.8938 7.45998C71.5977 11.0539 71.3727 15.2665 69.298 18.6601L69.3401 31.9313Z" fill="#3A3B38"></path><path d="M69.3401 31.9313L63.6677 35.4205H51.6791C50.1274 35.0539 48.9688 33.6607 48.9688 31.9963V23.2794C48.9688 22.3347 49.0433 21.4051 49.19 20.4965C49.1691 20.9281 48.837 28.2459 50.5662 27.3546C52.3489 26.4365 53.2118 22.4912 58.8881 22.3652C64.5646 22.2373 66.5266 22.2087 69.298 18.6604L69.3401 31.9313Z" fill="#3A3B38"></path><path d="M60.2267 24.2232H61.2595C64.8364 24.2232 68.0392 22.0073 69.3002 18.6602L72.9253 18.6862C75.3941 18.6862 77.3953 20.6876 77.3953 23.1561V25.1341C77.3953 26.5361 77.8173 27.9056 78.6062 29.0647C79.3954 30.2236 79.8171 31.5931 79.8171 32.995V36.6387C79.8171 44.3999 73.5255 50.6918 65.764 50.6918C58.0028 50.6918 51.7109 44.4002 51.7109 36.6387V33.7512V32.7393C51.7109 28.0358 55.5237 24.2232 60.2267 24.2232Z" fill="#FAE083"></path><path d="M61.1023 34.1743H61.0116C60.6808 34.1743 60.3936 34.371 60.2353 34.6618C60.0618 34.9808 59.7235 35.1976 59.3358 35.1976C58.9478 35.1976 58.6095 34.9808 58.4363 34.6618C58.2783 34.371 57.9905 34.1743 57.6598 34.1743H57.5693C56.9167 34.1743 56.4682 34.8583 56.7577 35.4435C57.2272 36.3936 58.2063 37.0482 59.3358 37.0482C60.465 37.0482 61.4444 36.3936 61.9139 35.4435C62.2032 34.8583 61.7551 34.1743 61.1023 34.1743Z" fill="#565656"></path><path d="M72.6013 37.0479C73.7308 37.0479 74.7097 36.3933 75.1794 35.4433C75.4685 34.858 75.0204 34.1741 74.3679 34.1741H74.2771C73.9463 34.1741 73.6589 34.3708 73.5006 34.6616C73.3273 34.9805 72.9891 35.1973 72.6013 35.1973C72.2131 35.1973 71.8753 34.9805 71.7016 34.6616C71.5435 34.3708 71.2563 34.1741 70.9255 34.1741H70.8348C70.1823 34.1741 69.7339 34.858 70.0232 35.4433C70.4927 36.3933 71.4721 37.0479 72.6013 37.0479Z" fill="#565656"></path><path d="M115.201 94.0193L124.143 99.909C125.202 100.607 126.596 99.7582 126.462 98.4965C126.009 94.2049 123.678 90.3339 120.098 87.9241L118.441 86.8093L115.201 94.0193Z" fill="#FAE083"></path><path d="M118.62 92.5201C118.62 94.0567 118.903 95.5082 119.414 96.7921L115.201 94.0178L118.442 86.8093L119.674 87.6397C119.004 89.0654 118.62 90.7361 118.62 92.5201Z" fill="#FAE083"></path><path d="M16.6354 94.0193L7.69417 99.909C6.63482 100.607 5.24083 99.7582 5.37412 98.4965C5.82813 94.2049 8.15824 90.3339 11.7387 87.9241L13.3957 86.8093L16.6354 94.0193Z" fill="#FAE083"></path><path d="M13.2163 92.5201C13.2163 94.0567 12.9327 95.5082 12.4222 96.7921L16.6349 94.0178L13.3945 86.8093L12.1621 87.6397C12.8322 89.0654 13.2163 90.7361 13.2163 92.5201Z" fill="#FAE083"></path><path d="M119.326 86.3197L115.384 95.1572L93.9988 86.6291L85.929 75.935V106.445H46.0686V75.935L37.9991 86.6291L20.7411 93.5124L16.6525 95.2423L12.6719 86.3197L31.3736 77.3478L38.5253 65.21C40.7399 60.2984 45.1305 56.7073 50.3873 55.516L59.1916 53.5234L60.9264 53.1289C60.9264 53.1289 63.0069 55.0625 65.8429 55.0625C68.6788 55.0625 71.0716 53.1289 71.0716 53.1289L72.7937 53.5182L81.6107 55.5162C86.8677 56.7073 91.258 60.2987 93.4726 65.2103L100.624 77.3481L119.326 86.3197Z" fill="#45B29D"></path><path d="M72.7936 53.5182C71.1743 55.4724 68.7276 56.7177 65.9897 56.7177C63.2569 56.7177 60.8102 55.475 59.1914 53.5234L60.9262 53.1289C60.9262 53.1289 63.0068 55.0625 65.8427 55.0625C68.6786 55.0625 71.0714 53.1289 71.0714 53.1289L72.7936 53.5182Z" fill="#45B29D"></path><path d="M66 100.933C65.644 100.933 65.3555 100.645 65.3555 100.289V62.7324C65.3555 62.3764 65.644 62.0879 66 62.0879C66.356 62.0879 66.6445 62.3764 66.6445 62.7324V100.289C66.6445 100.645 66.356 100.933 66 100.933Z" fill="#45B29D"></path><path d="M12.6719 86.3197L16.6525 95.2426L19.6431 93.8633L15.7177 84.8584L12.6719 86.3197Z" fill="white"></path><path d="M119.326 86.3197L115.384 95.1576L112.324 93.9371L116.307 84.8711L119.326 86.3197Z" fill="white"></path><path d="M43.8996 114.385L20.5021 112.767C15.1716 112.171 11.3343 107.366 11.9301 102.035C12.4875 97.0722 16.6893 93.4036 21.5708 93.4036C21.9299 93.4036 22.2944 93.4226 22.6613 93.4634L68.4362 105.814" fill="#369986"></path><path d="M68.4377 105.813L43.8991 114.385L20.5027 112.766C16.4908 112.318 13.3277 109.489 12.2578 105.847C16.9322 109.567 24.161 111.952 32.277 111.952C42.7106 111.952 51.6799 108.01 55.6348 102.358L68.4377 105.813Z" fill="#369986"></path><path d="M110.159 114.522L67.8624 117.453L67.8005 117.456L63.8612 117.726L63.8354 117.729L62.9227 109.572L62.6855 107.442L62.75 107.424L66.8106 106.328L66.8802 106.308L108.001 95.2193C108.367 95.1809 108.731 95.1575 109.092 95.1575C110.159 95.1575 111.193 95.333 112.165 95.6602C115.635 96.8232 118.299 99.9115 118.732 103.792C119.327 109.123 115.491 113.926 110.159 114.522Z" fill="#369986"></path><path d="M52.081 108.951L63.3714 107.689L64.4341 117.189L54.0819 117.324L44.7473 118.368C44.2476 118.424 43.805 118.129 43.7581 117.708C43.2803 113.439 47.0067 109.519 52.081 108.951Z" fill="#FAE083"></path><path d="M112.165 95.6602C110.146 105.962 97.2479 113.908 81.6397 113.908C74.5991 113.908 68.1099 112.292 62.9227 109.572L62.6855 107.442L62.75 107.424L66.8105 106.328L66.8802 106.308L108.001 95.2193C108.367 95.1809 108.731 95.1575 109.092 95.1575C110.159 95.1575 111.193 95.3328 112.165 95.6602Z" fill="#369986"></path><path d="M67.8003 117.381L63.8612 117.652L63.8354 117.654L62.6855 107.365L62.75 107.347L66.8105 106.251L67.7541 116.015L67.8003 117.381Z" fill="white"></path></svg>