<svg xmlns="http://www.w3.org/2000/svg" width="116" height="116" viewBox="0 0 116 116" fill="none"><path d="M41.6875 92.8362V108.75C41.6875 110.055 42.3762 111.251 43.5 111.904C44.6237 112.556 46.0012 112.556 47.125 111.904L58 105.669L68.875 111.904C69.4188 112.23 70.035 112.375 70.6875 112.375C71.34 112.375 71.9562 112.23 72.5 111.904C73.6238 111.251 74.3125 110.055 74.3125 108.75V92.8362C69.6725 96.0262 64.0537 97.8749 58 97.8749C51.9462 97.8749 46.3275 96.0262 41.6875 92.8362Z" fill="#FAE083"></path><path d="M19.9375 19.9375H96.0625V27.1875H19.9375V19.9375Z" fill="#046B6B"></path><path d="M108.75 3.625H7.25C5.25625 3.625 3.625 5.25625 3.625 7.25V76.125C3.625 78.1188 5.25625 79.75 7.25 79.75H31.1388C29.7613 76.3788 29 72.7175 29 68.875C29 52.8888 42.0138 39.875 58 39.875C73.9863 39.875 87 52.8888 87 68.875C87 72.7175 86.2387 76.3788 84.8613 79.75H108.75C110.744 79.75 112.375 78.1188 112.375 76.125V7.25C112.375 5.25625 110.744 3.625 108.75 3.625ZM27.1875 48.9375H16.3125C14.3188 48.9375 12.6875 47.3063 12.6875 45.3125C12.6875 43.3187 14.3188 41.6875 16.3125 41.6875H27.1875C29.1812 41.6875 30.8125 43.3187 30.8125 45.3125C30.8125 47.3063 29.1812 48.9375 27.1875 48.9375ZM99.6875 48.9375H88.8125C86.8187 48.9375 85.1875 47.3063 85.1875 45.3125C85.1875 43.3187 86.8187 41.6875 88.8125 41.6875H99.6875C101.681 41.6875 103.312 43.3187 103.312 45.3125C103.312 47.3063 101.681 48.9375 99.6875 48.9375ZM103.312 30.8125C103.312 32.8062 101.681 34.4375 99.6875 34.4375H16.3125C14.3188 34.4375 12.6875 32.8062 12.6875 30.8125V16.3125C12.6875 14.3188 14.3188 12.6875 16.3125 12.6875H99.6875C101.681 12.6875 103.312 14.3188 103.312 16.3125V30.8125Z" fill="#45B29D"></path><path d="M58 47.125C46.0013 47.125 36.25 56.8763 36.25 68.875C36.25 80.8737 46.0013 90.625 58 90.625C69.9987 90.625 79.75 80.8737 79.75 68.875C79.75 56.8763 69.9987 47.125 58 47.125ZM68.6575 66.265L58.3263 76.5962C57.6012 77.3212 56.695 77.6475 55.7525 77.6475C54.81 77.6475 53.9037 77.285 53.1788 76.5962L47.27 70.6875C45.8562 69.2738 45.8562 66.99 47.27 65.5763C48.6838 64.1625 50.9675 64.1625 52.3812 65.5763L55.7162 68.9113L63.4738 61.1538C64.8875 59.74 67.1712 59.74 68.585 61.1538C69.9987 62.5675 69.9987 64.8513 68.585 66.265H68.6575Z" fill="#FAE083"></path></svg>