<svg xmlns="http://www.w3.org/2000/svg" width="125" height="125" viewBox="0 0 125 125" fill="none"><path d="M119.16 97.6543L123.027 111.346H115.254L119.16 97.6543Z" fill="#FFCE54"></path><path d="M91.7773 117.166H91.8359C91.8344 118.724 91.2145 120.219 90.1123 121.321C89.0102 122.423 87.5157 123.043 85.957 123.044L85.8984 123.025H35.1563V123.044C33.5976 123.048 32.1011 122.433 30.9953 121.335C29.8894 120.236 29.2646 118.744 29.2578 117.185H29.2969V92.3022L60.5273 99.5874L91.7773 92.3022V117.166Z" fill="#45B29D"></path><path d="M119.121 85.9356L91.7774 92.3027L60.5273 99.5879L29.2969 92.3027L1.97266 85.9356L60.5273 72.2441L119.121 85.9356Z" fill="white"></path><path d="M38.4566 55.2906C34.0876 50.9216 31.1123 45.3552 29.9069 39.2953C28.7015 33.2354 29.3202 26.9541 31.6846 21.2458C34.0491 15.5374 38.0532 10.6585 43.1905 7.22579C48.3279 3.79312 54.3678 1.96094 60.5464 1.96094C66.7251 1.96094 72.765 3.79312 77.9023 7.22579C83.0397 10.6585 87.0437 15.5374 89.4082 21.2458C91.7727 26.9541 92.3913 33.2354 91.1859 39.2953C89.9805 45.3552 87.0052 50.9216 82.6363 55.2906C79.7363 58.193 76.2927 60.4954 72.5024 62.0664C68.7121 63.6373 64.6494 64.4458 60.5464 64.4458C56.4435 64.4458 52.3808 63.6373 48.5905 62.0664C44.8002 60.4954 41.3566 58.193 38.4566 55.2906ZM60.5464 7.81009C55.5246 7.81009 50.6156 9.29922 46.4401 12.0892C42.2647 14.8791 39.0103 18.8446 37.0885 23.4841C35.1668 28.1237 34.664 33.2289 35.6437 38.1542C36.6234 43.0795 39.0416 47.6037 42.5925 51.1546C46.1435 54.7055 50.6677 57.1238 55.593 58.1035C60.5183 59.0832 65.6235 58.5803 70.263 56.6586C74.9025 54.7368 78.868 51.4825 81.658 47.307C84.4479 43.1315 85.937 38.2225 85.937 33.2007C85.9371 29.8663 85.2805 26.5646 84.0045 23.484C82.7285 20.4035 80.8583 17.6044 78.5005 15.2466C76.1428 12.8889 73.3437 11.0186 70.2631 9.74264C67.1825 8.46667 63.8808 7.80999 60.5464 7.81009Z" fill="#FFE27A"></path><path d="M74.2578 29.4512L67.4219 36.1309L69.0234 45.5254L60.5859 41.0918L52.1289 45.5254L53.75 36.1309L46.9141 29.4512L56.3477 28.084L60.5859 19.5293L64.8047 28.084L74.2578 29.4512Z" fill="#FFE27A"></path><path d="M60.5469 7.81006C65.5687 7.81006 70.4777 9.29919 74.6531 12.0891C78.8286 14.8791 82.083 18.8446 84.0048 23.4841C85.9265 28.1236 86.4293 33.2288 85.4496 38.1541C84.4699 43.0794 82.0517 47.6036 78.5008 51.1546C74.9498 54.7055 70.4256 57.1237 65.5003 58.1034C60.575 59.0831 55.4698 58.5803 50.8303 56.6586C46.1908 54.7368 42.2253 51.4824 39.4353 47.307C36.6454 43.1315 35.1563 38.2225 35.1563 33.2007C35.1562 29.8663 35.8128 26.5646 37.0888 23.484C38.3648 20.4034 40.235 17.6043 42.5928 15.2466C44.9505 12.8888 47.7496 11.0186 50.8302 9.74261C53.9108 8.46664 57.2125 7.80996 60.5469 7.81006ZM67.4219 36.1304L74.2578 29.4507L64.8047 28.0835L60.5859 19.5288L56.3477 28.0835L46.9141 29.4507L53.75 36.1304L52.1289 45.5249L60.5859 41.0913L69.0234 45.5249L67.4219 36.1304Z" fill="#45B29D"></path><path d="M119.152 99.6168C118.896 99.617 118.642 99.5666 118.405 99.4685C118.168 99.3704 117.952 99.2265 117.771 99.0451C117.59 98.8637 117.446 98.6483 117.348 98.4113C117.249 98.1743 117.199 97.9202 117.199 97.6637V85.9297C117.199 85.4117 117.405 84.9149 117.771 84.5486C118.138 84.1823 118.634 83.9766 119.152 83.9766C119.67 83.9766 120.167 84.1823 120.533 84.5486C120.9 84.9149 121.105 85.4117 121.105 85.9297V97.6637C121.106 97.9202 121.055 98.1743 120.957 98.4113C120.859 98.6483 120.715 98.8637 120.534 99.0451C120.352 99.2265 120.137 99.3704 119.9 99.4685C119.663 99.5666 119.409 99.617 119.152 99.6168Z" fill="#FFE27A"></path><path d="M115.252 113.293C115.071 113.292 114.89 113.267 114.715 113.218C114.216 113.076 113.795 112.742 113.543 112.289C113.291 111.836 113.23 111.302 113.372 110.804L117.274 97.1279C117.345 96.8812 117.463 96.6508 117.622 96.4498C117.782 96.2488 117.979 96.0811 118.203 95.9564C118.428 95.8318 118.674 95.7525 118.929 95.7231C119.184 95.6937 119.442 95.7148 119.689 95.7852C119.936 95.8555 120.166 95.9738 120.367 96.1333C120.568 96.2927 120.736 96.4902 120.86 96.7144C120.985 96.9386 121.064 97.1852 121.094 97.4401C121.123 97.695 121.102 97.9531 121.032 98.1999L117.129 111.876C117.013 112.283 116.766 112.642 116.428 112.898C116.089 113.154 115.677 113.292 115.252 113.293Z" fill="#FFE27A"></path><path d="M123.031 113.293C122.606 113.292 122.193 113.153 121.854 112.897C121.515 112.64 121.27 112.281 121.154 111.872L117.274 98.1961C117.204 97.9492 117.183 97.6908 117.212 97.4357C117.242 97.1806 117.321 96.9338 117.446 96.7094C117.571 96.4851 117.739 96.2876 117.94 96.1283C118.142 95.969 118.373 95.8509 118.62 95.7809C118.867 95.711 119.125 95.6904 119.38 95.7204C119.635 95.7505 119.882 95.8305 120.106 95.956C120.33 96.0815 120.527 96.2499 120.686 96.4517C120.845 96.6534 120.962 96.8846 121.032 97.1318L124.911 110.808C124.981 111.054 125.002 111.312 124.972 111.567C124.943 111.822 124.863 112.068 124.738 112.292C124.613 112.516 124.445 112.713 124.244 112.872C124.042 113.031 123.812 113.149 123.565 113.218C123.391 113.268 123.211 113.293 123.031 113.293Z" fill="#FFE27A"></path><path d="M123.032 113.293H115.25C114.732 113.293 114.235 113.087 113.869 112.721C113.503 112.355 113.297 111.858 113.297 111.34C113.297 110.822 113.503 110.325 113.869 109.959C114.235 109.592 114.732 109.387 115.25 109.387H123.032C123.55 109.387 124.047 109.592 124.413 109.959C124.779 110.325 124.985 110.822 124.985 111.34C124.985 111.858 124.779 112.355 124.413 112.721C124.047 113.087 123.55 113.293 123.032 113.293Z" fill="#FFE27A"></path><path d="M60.532 101.551C60.3824 101.551 60.2332 101.534 60.0876 101.5L1.52435 87.8316C1.09518 87.7314 0.712533 87.4889 0.438617 87.1437C0.164701 86.7984 0.015625 86.3707 0.015625 85.9299C0.015625 85.4892 0.164701 85.0615 0.438617 84.7162C0.712533 84.371 1.09518 84.1285 1.52435 84.0283L60.0876 70.3525C60.3799 70.2839 60.6841 70.2839 60.9764 70.3525L119.566 84.0283C119.996 84.1285 120.378 84.371 120.652 84.7162C120.926 85.0615 121.075 85.4892 121.075 85.9299C121.075 86.3707 120.926 86.7984 120.652 87.1437C120.378 87.4889 119.996 87.7314 119.566 87.8316L60.9765 101.5C60.8308 101.534 60.6816 101.551 60.532 101.551ZM10.5594 85.93L60.532 97.5915L110.527 85.9299L60.532 74.2608L10.5594 85.93Z" fill="#45B29D"></path><path d="M84 117.203H37.125C36.607 117.203 36.1102 116.997 35.7439 116.631C35.3777 116.264 35.1719 115.768 35.1719 115.25C35.1719 114.732 35.3777 114.235 35.7439 113.868C36.1102 113.502 36.607 113.296 37.125 113.296H84C84.518 113.296 85.0148 113.502 85.3811 113.868C85.7474 114.235 85.9531 114.732 85.9531 115.25C85.9531 115.768 85.7474 116.264 85.3811 116.631C85.0148 116.997 84.518 117.203 84 117.203Z" fill="white"></path></svg>