<svg xmlns="http://www.w3.org/2000/svg" width="98" height="75" viewBox="0 0 98 75" fill="none"><path opacity="0.3" d="M8.80899 68.9338C3.30337 62.8677 0 56.25 0 45.2206C0 25.9191 13.764 8.82353 33.0337 0L37.9888 7.16912C19.8202 17.0956 15.9663 29.7794 14.8652 38.0515C17.618 36.3971 21.4719 35.8456 25.3258 36.3971C35.236 37.5 42.9438 45.2206 42.9438 55.6985C42.9438 60.6618 40.7416 65.625 37.4382 69.4853C33.5843 73.3456 29.1798 75 23.6742 75C17.618 75 12.1124 72.2427 8.80899 68.9338ZM63.8652 68.9338C58.3596 62.8677 55.0562 56.25 55.0562 45.2206C55.0562 25.9191 68.8202 8.82353 88.0899 0L93.0449 7.16912C74.8764 17.0956 71.0225 29.7794 69.9214 38.0515C72.6742 36.3971 76.5281 35.8456 80.382 36.3971C90.2921 37.5 98 45.2206 98 55.6985C98 60.6618 95.7977 65.625 92.4944 69.4853C89.191 73.3456 84.2359 75 78.7303 75C72.6741 75 67.1685 72.2427 63.8652 68.9338Z" fill="#45B29D"></path></svg>